<?xml version="1.0" encoding="utf-8"?>
<!-- Generator: Adobe Illustrator 24.1.1, SVG Export Plug-In . SVG Version: 6.00 Build 0)  -->
<svg version="1.1" id="Layer_1" xmlns="http://www.w3.org/2000/svg" xmlns:xlink="http://www.w3.org/1999/xlink" x="0px" y="0px"
	 viewBox="0 0 54.1 24.1" style="enable-background:new 0 0 54.1 24.1;" xml:space="preserve">
<style type="text/css">
	.st0{fill-rule:evenodd;clip-rule:evenodd;}
</style>
<path class="st0" d="M0,7.5v3.8h11c1.3,0,2.9-1.2,2.9-3.1c0-0.8,0.3-1.3-0.6-2.3l-1.4-1.7c-0.8-0.8,0.1-0.8,0.8-0.8h4.7v7.9H21V3.4
	h5V0H9.9C7.9,0,7,1.9,7,2.9c0.1,1,0.2,2.2,1.9,3.7c1.5,1.4-0.7,1-1,1L0,7.5L0,7.5z M34.2,0h-6l-3.3,11.3h3.7l0.6-1.6h3.9l0.6,1.6
	h3.6L34.2,0L34.2,0z M30,7l1.3-4.1L32.5,7H30z M49.1,7.5c-1.4,0-1.4-0.5-1.4-0.5C48.9,7,50,5.2,50,3.4S48.2,0,46.8,0h-8v11.3h4.1
	V7.5c0,0,1.7,2,2.6,2.9c0.9,0.8,1,0.9,2.2,0.9h6.4V7.5C54.1,7.5,50.6,7.5,49.1,7.5L49.1,7.5z M45.4,4.9h-2.6v-2h2.6
	C46.6,2.9,46.8,4.9,45.4,4.9z M0,12.7h4.2l1.1,3.8l1-3.8h4.4l1.1,3.8l1.1-3.8h3.6l-3.3,11.3H9.8l-1.5-5.4l-1.6,5.4H3.3L0,12.7z
	 M25,12.8h-6l-3.3,11.3h3.7l0.6-1.6H24l0.6,1.6h3.6L25,12.8z M20.9,19.8l1.3-4.1l1.2,4.1H20.9z M49.2,16.1c-0.7,0-1.4,0.1-0.6,0.8
	l1.4,1.7c0.9,1,0.9,1.5,0.9,2.3c0,2-1.9,3.1-3.2,3.1l-8.9,0.1c-1.2,0-1.3-0.1-2.2-0.9c-0.9-0.8-2.6-2.9-2.6-2.9v3.8h-4.1V12.8h8
	c1.4,0,3.2,1.6,3.2,3.4c0,1.8-1.1,3.6-2.3,3.6c0,0,0.5,0.5,1.4,0.5c0.9,0,4.4,0,4.4,0c0.2,0,2.4,0.4,1-1c-1.6-1.5-1.8-2.7-1.9-3.7
	c-0.1-1,0.8-2.9,2.8-2.9h7.6v3.4L49.2,16.1L49.2,16.1L49.2,16.1z M36.5,17.7h-2.6v-2h2.6C37.7,15.7,37.9,17.7,36.5,17.7z"/>
</svg>
